<mxfile host="app.diagrams.net" modified="2023-10-25T08:23:27.566Z" agent="Mozilla/5.0 (Windows NT 10.0; Win64; x64) AppleWebKit/537.36 (KHTML, like Gecko) Chrome/118.0.0.0 Safari/537.36 Edg/118.0.2088.61" etag="wCu2-UkmwUnj9xG3W_9e" version="22.0.7" type="github">
  <diagram id="C5RBs43oDa-KdzZeNtuy" name="Page-1">
    <mxGraphModel dx="1002" dy="1834" grid="1" gridSize="10" guides="1" tooltips="1" connect="1" arrows="1" fold="1" page="1" pageScale="1" pageWidth="827" pageHeight="1169" math="0" shadow="0">
      <root>
        <mxCell id="WIyWlLk6GJQsqaUBKTNV-0" />
        <mxCell id="WIyWlLk6GJQsqaUBKTNV-1" parent="WIyWlLk6GJQsqaUBKTNV-0" />
        <mxCell id="O7mEJF-UvuZjmEnGn9pk-1" value="&lt;p style=&quot;line-height: 120%;&quot;&gt;&lt;br&gt;&lt;/p&gt;" style="rounded=1;whiteSpace=wrap;html=1;align=right;" parent="WIyWlLk6GJQsqaUBKTNV-1" vertex="1">
          <mxGeometry x="332" y="-1110" width="194" height="200" as="geometry" />
        </mxCell>
        <mxCell id="WIyWlLk6GJQsqaUBKTNV-3" value="KANZI" style="rounded=1;whiteSpace=wrap;html=1;fontSize=12;glass=0;strokeWidth=1;shadow=0;" parent="WIyWlLk6GJQsqaUBKTNV-1" vertex="1">
          <mxGeometry x="369" y="-1060" width="120" height="40" as="geometry" />
        </mxCell>
        <mxCell id="WIyWlLk6GJQsqaUBKTNV-7" value="仪表中间件" style="rounded=1;whiteSpace=wrap;html=1;fontSize=12;glass=0;strokeWidth=1;shadow=0;" parent="WIyWlLk6GJQsqaUBKTNV-1" vertex="1">
          <mxGeometry x="369" y="-970" width="120" height="40" as="geometry" />
        </mxCell>
        <mxCell id="O7mEJF-UvuZjmEnGn9pk-0" value="" style="endArrow=classic;startArrow=classic;html=1;rounded=0;exitX=0.5;exitY=0;exitDx=0;exitDy=0;entryX=0.5;entryY=1;entryDx=0;entryDy=0;" parent="WIyWlLk6GJQsqaUBKTNV-1" source="WIyWlLk6GJQsqaUBKTNV-7" target="WIyWlLk6GJQsqaUBKTNV-3" edge="1">
          <mxGeometry width="50" height="50" relative="1" as="geometry">
            <mxPoint x="279" y="-940" as="sourcePoint" />
            <mxPoint x="422" y="-1017" as="targetPoint" />
          </mxGeometry>
        </mxCell>
        <mxCell id="O7mEJF-UvuZjmEnGn9pk-3" value="&lt;font style=&quot;font-size: 12px;&quot;&gt;仪表APP&lt;/font&gt;" style="text;html=1;strokeColor=none;fillColor=none;align=center;verticalAlign=middle;whiteSpace=wrap;rounded=0;" parent="WIyWlLk6GJQsqaUBKTNV-1" vertex="1">
          <mxGeometry x="349" y="-1098" width="60" height="30" as="geometry" />
        </mxCell>
        <mxCell id="O7mEJF-UvuZjmEnGn9pk-4" value="API" style="rounded=1;whiteSpace=wrap;html=1;fontSize=12;glass=0;strokeWidth=1;shadow=0;" parent="WIyWlLk6GJQsqaUBKTNV-1" vertex="1">
          <mxGeometry x="369" y="-854" width="120" height="40" as="geometry" />
        </mxCell>
        <mxCell id="O7mEJF-UvuZjmEnGn9pk-5" value="" style="endArrow=classic;startArrow=classic;html=1;rounded=0;exitX=0.5;exitY=0;exitDx=0;exitDy=0;entryX=0.5;entryY=1;entryDx=0;entryDy=0;" parent="WIyWlLk6GJQsqaUBKTNV-1" source="O7mEJF-UvuZjmEnGn9pk-4" target="O7mEJF-UvuZjmEnGn9pk-1" edge="1">
          <mxGeometry width="50" height="50" relative="1" as="geometry">
            <mxPoint x="259" y="-810" as="sourcePoint" />
            <mxPoint x="409" y="-880" as="targetPoint" />
          </mxGeometry>
        </mxCell>
        <mxCell id="O7mEJF-UvuZjmEnGn9pk-6" value="SOA" style="rounded=1;whiteSpace=wrap;html=1;fontSize=12;glass=0;strokeWidth=1;shadow=0;" parent="WIyWlLk6GJQsqaUBKTNV-1" vertex="1">
          <mxGeometry x="370" y="-760" width="120" height="40" as="geometry" />
        </mxCell>
        <mxCell id="O7mEJF-UvuZjmEnGn9pk-7" value="" style="endArrow=classic;startArrow=classic;html=1;rounded=0;exitX=0.5;exitY=0;exitDx=0;exitDy=0;entryX=0.5;entryY=1;entryDx=0;entryDy=0;" parent="WIyWlLk6GJQsqaUBKTNV-1" source="O7mEJF-UvuZjmEnGn9pk-6" edge="1">
          <mxGeometry width="50" height="50" relative="1" as="geometry">
            <mxPoint x="260" y="-716" as="sourcePoint" />
            <mxPoint x="430" y="-816" as="targetPoint" />
          </mxGeometry>
        </mxCell>
        <mxCell id="O7mEJF-UvuZjmEnGn9pk-8" value="" style="endArrow=classic;startArrow=classic;html=1;rounded=0;exitX=0.5;exitY=0;exitDx=0;exitDy=0;" parent="WIyWlLk6GJQsqaUBKTNV-1" source="O7mEJF-UvuZjmEnGn9pk-9" edge="1">
          <mxGeometry width="50" height="50" relative="1" as="geometry">
            <mxPoint x="210" y="-780" as="sourcePoint" />
            <mxPoint x="369" y="-833" as="targetPoint" />
            <Array as="points">
              <mxPoint x="240" y="-833" />
            </Array>
          </mxGeometry>
        </mxCell>
        <mxCell id="O7mEJF-UvuZjmEnGn9pk-9" value="MCU Service" style="rounded=1;whiteSpace=wrap;html=1;fontSize=12;glass=0;strokeWidth=1;shadow=0;" parent="WIyWlLk6GJQsqaUBKTNV-1" vertex="1">
          <mxGeometry x="180" y="-760" width="120" height="40" as="geometry" />
        </mxCell>
        <mxCell id="O7mEJF-UvuZjmEnGn9pk-10" value="dbus" style="rounded=1;whiteSpace=wrap;html=1;fontSize=12;glass=0;strokeWidth=1;shadow=0;" parent="WIyWlLk6GJQsqaUBKTNV-1" vertex="1">
          <mxGeometry x="560" y="-760" width="120" height="40" as="geometry" />
        </mxCell>
        <mxCell id="O7mEJF-UvuZjmEnGn9pk-11" value="SOMEIP" style="rounded=1;whiteSpace=wrap;html=1;fontSize=12;glass=0;strokeWidth=1;shadow=0;" parent="WIyWlLk6GJQsqaUBKTNV-1" vertex="1">
          <mxGeometry x="370" y="-665" width="120" height="40" as="geometry" />
        </mxCell>
        <mxCell id="O7mEJF-UvuZjmEnGn9pk-12" value="MCU" style="rounded=1;whiteSpace=wrap;html=1;fontSize=12;glass=0;strokeWidth=1;shadow=0;" parent="WIyWlLk6GJQsqaUBKTNV-1" vertex="1">
          <mxGeometry x="180" y="-665" width="120" height="40" as="geometry" />
        </mxCell>
        <mxCell id="O7mEJF-UvuZjmEnGn9pk-13" value="Android" style="rounded=1;whiteSpace=wrap;html=1;fontSize=12;glass=0;strokeWidth=1;shadow=0;" parent="WIyWlLk6GJQsqaUBKTNV-1" vertex="1">
          <mxGeometry x="560" y="-665" width="120" height="40" as="geometry" />
        </mxCell>
        <mxCell id="O7mEJF-UvuZjmEnGn9pk-14" value="" style="endArrow=classic;startArrow=classic;html=1;rounded=0;exitX=0.5;exitY=0;exitDx=0;exitDy=0;" parent="WIyWlLk6GJQsqaUBKTNV-1" edge="1">
          <mxGeometry width="50" height="50" relative="1" as="geometry">
            <mxPoint x="620" y="-760" as="sourcePoint" />
            <mxPoint x="490" y="-834" as="targetPoint" />
            <Array as="points">
              <mxPoint x="620" y="-834" />
            </Array>
          </mxGeometry>
        </mxCell>
        <mxCell id="O7mEJF-UvuZjmEnGn9pk-15" value="CAN/硬件" style="rounded=1;whiteSpace=wrap;html=1;fontSize=12;glass=0;strokeWidth=1;shadow=0;" parent="WIyWlLk6GJQsqaUBKTNV-1" vertex="1">
          <mxGeometry x="180" y="-569" width="120" height="40" as="geometry" />
        </mxCell>
        <mxCell id="O7mEJF-UvuZjmEnGn9pk-16" value="" style="endArrow=classic;startArrow=classic;html=1;rounded=0;exitX=0.5;exitY=0;exitDx=0;exitDy=0;entryX=0.5;entryY=1;entryDx=0;entryDy=0;" parent="WIyWlLk6GJQsqaUBKTNV-1" edge="1">
          <mxGeometry width="50" height="50" relative="1" as="geometry">
            <mxPoint x="428.5" y="-664" as="sourcePoint" />
            <mxPoint x="428.5" y="-720" as="targetPoint" />
          </mxGeometry>
        </mxCell>
        <mxCell id="O7mEJF-UvuZjmEnGn9pk-17" value="" style="endArrow=classic;startArrow=classic;html=1;rounded=0;exitX=0.5;exitY=0;exitDx=0;exitDy=0;entryX=0.5;entryY=1;entryDx=0;entryDy=0;" parent="WIyWlLk6GJQsqaUBKTNV-1" edge="1">
          <mxGeometry width="50" height="50" relative="1" as="geometry">
            <mxPoint x="620" y="-664" as="sourcePoint" />
            <mxPoint x="620" y="-720" as="targetPoint" />
          </mxGeometry>
        </mxCell>
        <mxCell id="O7mEJF-UvuZjmEnGn9pk-18" value="" style="endArrow=classic;startArrow=classic;html=1;rounded=0;exitX=0.5;exitY=0;exitDx=0;exitDy=0;entryX=0.5;entryY=1;entryDx=0;entryDy=0;" parent="WIyWlLk6GJQsqaUBKTNV-1" edge="1">
          <mxGeometry width="50" height="50" relative="1" as="geometry">
            <mxPoint x="239.5" y="-665" as="sourcePoint" />
            <mxPoint x="239.5" y="-721" as="targetPoint" />
          </mxGeometry>
        </mxCell>
        <mxCell id="O7mEJF-UvuZjmEnGn9pk-19" value="" style="endArrow=classic;startArrow=classic;html=1;rounded=0;exitX=0.5;exitY=0;exitDx=0;exitDy=0;entryX=0.5;entryY=1;entryDx=0;entryDy=0;" parent="WIyWlLk6GJQsqaUBKTNV-1" edge="1">
          <mxGeometry width="50" height="50" relative="1" as="geometry">
            <mxPoint x="238.5" y="-569" as="sourcePoint" />
            <mxPoint x="238.5" y="-625" as="targetPoint" />
          </mxGeometry>
        </mxCell>
        <mxCell id="O7mEJF-UvuZjmEnGn9pk-21" value="API回调cb_QS_MSG_VI_CC_F_FROM_CENTER_IC" style="rounded=1;whiteSpace=wrap;html=1;fontSize=12;glass=0;strokeWidth=1;shadow=0;" parent="WIyWlLk6GJQsqaUBKTNV-1" vertex="1">
          <mxGeometry x="261" y="-350" width="271" height="40" as="geometry" />
        </mxCell>
        <mxCell id="O7mEJF-UvuZjmEnGn9pk-22" value="view模块FIFO处理view_proc中GUA_MSG_VIEW_CATALOG_FECMD_JSON" style="rounded=1;whiteSpace=wrap;html=1;fontSize=12;glass=0;strokeWidth=1;shadow=0;" parent="WIyWlLk6GJQsqaUBKTNV-1" vertex="1">
          <mxGeometry x="258.25" y="650" width="280" height="40" as="geometry" />
        </mxCell>
        <mxCell id="O7mEJF-UvuZjmEnGn9pk-23" value="" style="endArrow=classic;html=1;rounded=0;" parent="WIyWlLk6GJQsqaUBKTNV-1" edge="1">
          <mxGeometry width="50" height="50" relative="1" as="geometry">
            <mxPoint x="397.5" y="-307" as="sourcePoint" />
            <mxPoint x="397.5" y="-257" as="targetPoint" />
          </mxGeometry>
        </mxCell>
        <mxCell id="O7mEJF-UvuZjmEnGn9pk-24" value="回调数据GUA_FECMD_ID_JSON" style="rounded=1;whiteSpace=wrap;html=1;fontSize=12;glass=0;strokeWidth=1;shadow=0;" parent="WIyWlLk6GJQsqaUBKTNV-1" vertex="1">
          <mxGeometry x="283.25" y="870" width="223.75" height="40" as="geometry" />
        </mxCell>
        <mxCell id="O7mEJF-UvuZjmEnGn9pk-25" value="" style="endArrow=classic;html=1;rounded=0;" parent="WIyWlLk6GJQsqaUBKTNV-1" edge="1">
          <mxGeometry width="50" height="50" relative="1" as="geometry">
            <mxPoint x="395.75" y="690" as="sourcePoint" />
            <mxPoint x="395.75" y="740" as="targetPoint" />
          </mxGeometry>
        </mxCell>
        <mxCell id="SySzUB2qd8gv6iDawwO6-0" value="kanzi显示" style="rounded=1;whiteSpace=wrap;html=1;fontSize=12;glass=0;strokeWidth=1;shadow=0;" parent="WIyWlLk6GJQsqaUBKTNV-1" vertex="1">
          <mxGeometry x="335.25" y="961" width="120" height="40" as="geometry" />
        </mxCell>
        <mxCell id="SySzUB2qd8gv6iDawwO6-1" value="" style="endArrow=classic;html=1;rounded=0;" parent="WIyWlLk6GJQsqaUBKTNV-1" edge="1">
          <mxGeometry width="50" height="50" relative="1" as="geometry">
            <mxPoint x="395.75" y="911" as="sourcePoint" />
            <mxPoint x="395.75" y="961" as="targetPoint" />
          </mxGeometry>
        </mxCell>
        <mxCell id="0cVivC7FAnk5mj-CIP8_-0" value="API回调cb_QS_MSG_VI_CC_F_FROM_CENTER_ThemeMode" style="rounded=1;whiteSpace=wrap;html=1;fontSize=12;glass=0;strokeWidth=1;shadow=0;" parent="WIyWlLk6GJQsqaUBKTNV-1" vertex="1">
          <mxGeometry x="248.5" y="1243" width="318.5" height="40" as="geometry" />
        </mxCell>
        <mxCell id="0cVivC7FAnk5mj-CIP8_-1" value="profl模块FIFO处理profl_proc中profl_proc_theme" style="rounded=1;whiteSpace=wrap;html=1;fontSize=12;glass=0;strokeWidth=1;shadow=0;" parent="WIyWlLk6GJQsqaUBKTNV-1" vertex="1">
          <mxGeometry x="150" y="1360" width="190" height="40" as="geometry" />
        </mxCell>
        <mxCell id="0cVivC7FAnk5mj-CIP8_-2" value="" style="endArrow=classic;html=1;rounded=0;entryX=0.5;entryY=0;entryDx=0;entryDy=0;" parent="WIyWlLk6GJQsqaUBKTNV-1" target="0cVivC7FAnk5mj-CIP8_-1" edge="1">
          <mxGeometry width="50" height="50" relative="1" as="geometry">
            <mxPoint x="408" y="1283" as="sourcePoint" />
            <mxPoint x="408" y="1333" as="targetPoint" />
            <Array as="points">
              <mxPoint x="408" y="1320" />
              <mxPoint x="245" y="1320" />
            </Array>
          </mxGeometry>
        </mxCell>
        <mxCell id="0cVivC7FAnk5mj-CIP8_-3" value="与kanzi通信接口gua_cb_get_fe_fecmd&lt;br&gt;回调数据GUA_FECMD_ID_THEME" style="rounded=1;whiteSpace=wrap;html=1;fontSize=12;glass=0;strokeWidth=1;shadow=0;" parent="WIyWlLk6GJQsqaUBKTNV-1" vertex="1">
          <mxGeometry x="112" y="1541" width="258" height="40" as="geometry" />
        </mxCell>
        <mxCell id="0cVivC7FAnk5mj-CIP8_-4" value="" style="endArrow=classic;html=1;rounded=0;entryX=0.5;entryY=0;entryDx=0;entryDy=0;exitX=0.5;exitY=1;exitDx=0;exitDy=0;" parent="WIyWlLk6GJQsqaUBKTNV-1" source="0cVivC7FAnk5mj-CIP8_-0" target="0cVivC7FAnk5mj-CIP8_-16" edge="1">
          <mxGeometry width="50" height="50" relative="1" as="geometry">
            <mxPoint x="407.5" y="1375" as="sourcePoint" />
            <mxPoint x="407.5" y="1425" as="targetPoint" />
            <Array as="points">
              <mxPoint x="408" y="1320" />
              <mxPoint x="555" y="1320" />
            </Array>
          </mxGeometry>
        </mxCell>
        <mxCell id="0cVivC7FAnk5mj-CIP8_-5" value="kanzi显示" style="rounded=1;whiteSpace=wrap;html=1;fontSize=12;glass=0;strokeWidth=1;shadow=0;" parent="WIyWlLk6GJQsqaUBKTNV-1" vertex="1">
          <mxGeometry x="189" y="1630" width="120" height="40" as="geometry" />
        </mxCell>
        <mxCell id="0cVivC7FAnk5mj-CIP8_-6" value="" style="endArrow=classic;html=1;rounded=0;" parent="WIyWlLk6GJQsqaUBKTNV-1" edge="1">
          <mxGeometry width="50" height="50" relative="1" as="geometry">
            <mxPoint x="248.5" y="1400" as="sourcePoint" />
            <mxPoint x="248.5" y="1450" as="targetPoint" />
          </mxGeometry>
        </mxCell>
        <mxCell id="0cVivC7FAnk5mj-CIP8_-7" value="profl_storg_save_theme" style="rounded=1;whiteSpace=wrap;html=1;fontSize=12;glass=0;strokeWidth=1;shadow=0;" parent="WIyWlLk6GJQsqaUBKTNV-1" vertex="1">
          <mxGeometry x="480" y="1450" width="150" height="40" as="geometry" />
        </mxCell>
        <mxCell id="0cVivC7FAnk5mj-CIP8_-8" value="存储到系统数据库" style="rounded=1;whiteSpace=wrap;html=1;fontSize=12;glass=0;strokeWidth=1;shadow=0;" parent="WIyWlLk6GJQsqaUBKTNV-1" vertex="1">
          <mxGeometry x="495" y="1541" width="120" height="40" as="geometry" />
        </mxCell>
        <mxCell id="0cVivC7FAnk5mj-CIP8_-9" value="" style="endArrow=classic;html=1;rounded=0;" parent="WIyWlLk6GJQsqaUBKTNV-1" edge="1">
          <mxGeometry width="50" height="50" relative="1" as="geometry">
            <mxPoint x="555.5" y="1491" as="sourcePoint" />
            <mxPoint x="555.5" y="1541" as="targetPoint" />
          </mxGeometry>
        </mxCell>
        <mxCell id="0cVivC7FAnk5mj-CIP8_-16" value="gua_profl_save_theme" style="rounded=1;whiteSpace=wrap;html=1;fontSize=12;glass=0;strokeWidth=1;shadow=0;" parent="WIyWlLk6GJQsqaUBKTNV-1" vertex="1">
          <mxGeometry x="480" y="1360" width="150" height="40" as="geometry" />
        </mxCell>
        <mxCell id="0cVivC7FAnk5mj-CIP8_-17" value="" style="endArrow=classic;html=1;rounded=0;" parent="WIyWlLk6GJQsqaUBKTNV-1" edge="1">
          <mxGeometry width="50" height="50" relative="1" as="geometry">
            <mxPoint x="554.5" y="1400" as="sourcePoint" />
            <mxPoint x="554.5" y="1450" as="targetPoint" />
          </mxGeometry>
        </mxCell>
        <mxCell id="0cVivC7FAnk5mj-CIP8_-18" value="view模块FIFO处理view_proc中GUA_MSG_VIEW_CATALOG_FECMD_THEME" style="rounded=1;whiteSpace=wrap;html=1;fontSize=12;glass=0;strokeWidth=1;shadow=0;" parent="WIyWlLk6GJQsqaUBKTNV-1" vertex="1">
          <mxGeometry x="108" y="1450" width="280" height="40" as="geometry" />
        </mxCell>
        <mxCell id="0cVivC7FAnk5mj-CIP8_-19" value="" style="endArrow=classic;html=1;rounded=0;" parent="WIyWlLk6GJQsqaUBKTNV-1" edge="1">
          <mxGeometry width="50" height="50" relative="1" as="geometry">
            <mxPoint x="247.5" y="1490" as="sourcePoint" />
            <mxPoint x="247.5" y="1540" as="targetPoint" />
          </mxGeometry>
        </mxCell>
        <mxCell id="0cVivC7FAnk5mj-CIP8_-22" value="" style="endArrow=classic;html=1;rounded=0;" parent="WIyWlLk6GJQsqaUBKTNV-1" edge="1">
          <mxGeometry width="50" height="50" relative="1" as="geometry">
            <mxPoint x="247.5" y="1580" as="sourcePoint" />
            <mxPoint x="247.5" y="1630" as="targetPoint" />
          </mxGeometry>
        </mxCell>
        <mxCell id="0cVivC7FAnk5mj-CIP8_-24" value="开机启动gua_profl_start" style="rounded=1;whiteSpace=wrap;html=1;fontSize=12;glass=0;strokeWidth=1;shadow=0;" parent="WIyWlLk6GJQsqaUBKTNV-1" vertex="1">
          <mxGeometry x="283.5" y="1754" width="176.5" height="40" as="geometry" />
        </mxCell>
        <mxCell id="0cVivC7FAnk5mj-CIP8_-25" value="profl模块FIFO处理profl_proc中profl_proc_theme" style="rounded=1;whiteSpace=wrap;html=1;fontSize=12;glass=0;strokeWidth=1;shadow=0;" parent="WIyWlLk6GJQsqaUBKTNV-1" vertex="1">
          <mxGeometry x="273.5" y="2025" width="190" height="40" as="geometry" />
        </mxCell>
        <mxCell id="0cVivC7FAnk5mj-CIP8_-26" value="与kanzi通信接口gua_cb_get_fe_fecmd&lt;br&gt;回调数据GUA_FECMD_ID_THEME" style="rounded=1;whiteSpace=wrap;html=1;fontSize=12;glass=0;strokeWidth=1;shadow=0;" parent="WIyWlLk6GJQsqaUBKTNV-1" vertex="1">
          <mxGeometry x="239" y="2209" width="258" height="40" as="geometry" />
        </mxCell>
        <mxCell id="0cVivC7FAnk5mj-CIP8_-27" value="kanzi显示" style="rounded=1;whiteSpace=wrap;html=1;fontSize=12;glass=0;strokeWidth=1;shadow=0;" parent="WIyWlLk6GJQsqaUBKTNV-1" vertex="1">
          <mxGeometry x="307" y="2300" width="120" height="40" as="geometry" />
        </mxCell>
        <mxCell id="0cVivC7FAnk5mj-CIP8_-28" value="view模块FIFO处理view_proc中GUA_MSG_VIEW_CATALOG_FECMD_THEME" style="rounded=1;whiteSpace=wrap;html=1;fontSize=12;glass=0;strokeWidth=1;shadow=0;" parent="WIyWlLk6GJQsqaUBKTNV-1" vertex="1">
          <mxGeometry x="229" y="2117" width="280" height="40" as="geometry" />
        </mxCell>
        <mxCell id="0cVivC7FAnk5mj-CIP8_-31" value="load_theme" style="rounded=1;whiteSpace=wrap;html=1;fontSize=12;glass=0;strokeWidth=1;shadow=0;" parent="WIyWlLk6GJQsqaUBKTNV-1" vertex="1">
          <mxGeometry x="286.75" y="1844" width="170" height="40" as="geometry" />
        </mxCell>
        <mxCell id="0cVivC7FAnk5mj-CIP8_-32" value="profl_storg_load_theme" style="rounded=1;whiteSpace=wrap;html=1;fontSize=12;glass=0;strokeWidth=1;shadow=0;" parent="WIyWlLk6GJQsqaUBKTNV-1" vertex="1">
          <mxGeometry x="283.5" y="1935" width="176.5" height="40" as="geometry" />
        </mxCell>
        <mxCell id="0cVivC7FAnk5mj-CIP8_-34" value="" style="endArrow=classic;html=1;rounded=0;" parent="WIyWlLk6GJQsqaUBKTNV-1" edge="1">
          <mxGeometry width="50" height="50" relative="1" as="geometry">
            <mxPoint x="371.25" y="1794" as="sourcePoint" />
            <mxPoint x="371.25" y="1844" as="targetPoint" />
          </mxGeometry>
        </mxCell>
        <mxCell id="0cVivC7FAnk5mj-CIP8_-35" value="" style="endArrow=classic;html=1;rounded=0;" parent="WIyWlLk6GJQsqaUBKTNV-1" edge="1">
          <mxGeometry width="50" height="50" relative="1" as="geometry">
            <mxPoint x="371.25" y="1884" as="sourcePoint" />
            <mxPoint x="371.25" y="1934" as="targetPoint" />
          </mxGeometry>
        </mxCell>
        <mxCell id="0cVivC7FAnk5mj-CIP8_-36" value="" style="endArrow=classic;html=1;rounded=0;" parent="WIyWlLk6GJQsqaUBKTNV-1" edge="1">
          <mxGeometry width="50" height="50" relative="1" as="geometry">
            <mxPoint x="371.25" y="1975" as="sourcePoint" />
            <mxPoint x="371.25" y="2025" as="targetPoint" />
          </mxGeometry>
        </mxCell>
        <mxCell id="0cVivC7FAnk5mj-CIP8_-37" value="" style="endArrow=classic;html=1;rounded=0;" parent="WIyWlLk6GJQsqaUBKTNV-1" edge="1">
          <mxGeometry width="50" height="50" relative="1" as="geometry">
            <mxPoint x="370" y="2066" as="sourcePoint" />
            <mxPoint x="370" y="2116" as="targetPoint" />
          </mxGeometry>
        </mxCell>
        <mxCell id="0cVivC7FAnk5mj-CIP8_-38" value="" style="endArrow=classic;html=1;rounded=0;" parent="WIyWlLk6GJQsqaUBKTNV-1" edge="1">
          <mxGeometry width="50" height="50" relative="1" as="geometry">
            <mxPoint x="368.5" y="2157" as="sourcePoint" />
            <mxPoint x="368.5" y="2207" as="targetPoint" />
          </mxGeometry>
        </mxCell>
        <mxCell id="0cVivC7FAnk5mj-CIP8_-40" value="" style="endArrow=classic;html=1;rounded=0;" parent="WIyWlLk6GJQsqaUBKTNV-1" edge="1">
          <mxGeometry width="50" height="50" relative="1" as="geometry">
            <mxPoint x="366.5" y="2249" as="sourcePoint" />
            <mxPoint x="366.5" y="2299" as="targetPoint" />
          </mxGeometry>
        </mxCell>
        <mxCell id="0cVivC7FAnk5mj-CIP8_-42" value="arbi模块处理arbi_proc中保养信息透传" style="rounded=1;whiteSpace=wrap;html=1;fontSize=12;glass=0;strokeWidth=1;shadow=0;" parent="WIyWlLk6GJQsqaUBKTNV-1" vertex="1">
          <mxGeometry x="328.75" y="2589" width="138.5" height="40" as="geometry" />
        </mxCell>
        <mxCell id="0cVivC7FAnk5mj-CIP8_-43" value="与kanzi通信接口" style="rounded=1;whiteSpace=wrap;html=1;fontSize=12;glass=0;strokeWidth=1;shadow=0;" parent="WIyWlLk6GJQsqaUBKTNV-1" vertex="1">
          <mxGeometry x="319.5" y="2774" width="153" height="40" as="geometry" />
        </mxCell>
        <mxCell id="0cVivC7FAnk5mj-CIP8_-44" value="view模块FIFO处理view_proc中对保养信息进行处理" style="rounded=1;whiteSpace=wrap;html=1;fontSize=12;glass=0;strokeWidth=1;shadow=0;" parent="WIyWlLk6GJQsqaUBKTNV-1" vertex="1">
          <mxGeometry x="256.5" y="2682" width="280" height="40" as="geometry" />
        </mxCell>
        <mxCell id="0cVivC7FAnk5mj-CIP8_-46" value="HU_VehicleMaintenanceReminder" style="rounded=1;whiteSpace=wrap;html=1;fontSize=12;glass=0;strokeWidth=1;shadow=0;" parent="WIyWlLk6GJQsqaUBKTNV-1" vertex="1">
          <mxGeometry x="289.25" y="2500" width="218.5" height="40" as="geometry" />
        </mxCell>
        <mxCell id="0cVivC7FAnk5mj-CIP8_-49" value="" style="endArrow=classic;html=1;rounded=0;" parent="WIyWlLk6GJQsqaUBKTNV-1" edge="1">
          <mxGeometry width="50" height="50" relative="1" as="geometry">
            <mxPoint x="398.75" y="2540" as="sourcePoint" />
            <mxPoint x="398.75" y="2590" as="targetPoint" />
          </mxGeometry>
        </mxCell>
        <mxCell id="0cVivC7FAnk5mj-CIP8_-50" value="" style="endArrow=classic;html=1;rounded=0;" parent="WIyWlLk6GJQsqaUBKTNV-1" edge="1">
          <mxGeometry width="50" height="50" relative="1" as="geometry">
            <mxPoint x="397.5" y="2631" as="sourcePoint" />
            <mxPoint x="397.5" y="2681" as="targetPoint" />
          </mxGeometry>
        </mxCell>
        <mxCell id="0cVivC7FAnk5mj-CIP8_-51" value="" style="endArrow=classic;html=1;rounded=0;" parent="WIyWlLk6GJQsqaUBKTNV-1" edge="1">
          <mxGeometry width="50" height="50" relative="1" as="geometry">
            <mxPoint x="396" y="2722" as="sourcePoint" />
            <mxPoint x="396" y="2772" as="targetPoint" />
          </mxGeometry>
        </mxCell>
        <mxCell id="0cVivC7FAnk5mj-CIP8_-52" value="kanzi显示" style="rounded=1;whiteSpace=wrap;html=1;fontSize=12;glass=0;strokeWidth=1;shadow=0;" parent="WIyWlLk6GJQsqaUBKTNV-1" vertex="1">
          <mxGeometry x="212" y="2909" width="120" height="40" as="geometry" />
        </mxCell>
        <mxCell id="0cVivC7FAnk5mj-CIP8_-53" value="" style="endArrow=classic;html=1;rounded=0;entryX=0.5;entryY=0;entryDx=0;entryDy=0;" parent="WIyWlLk6GJQsqaUBKTNV-1" edge="1">
          <mxGeometry width="50" height="50" relative="1" as="geometry">
            <mxPoint x="395.5" y="2815" as="sourcePoint" />
            <mxPoint x="504.5" y="2909" as="targetPoint" />
            <Array as="points">
              <mxPoint x="395.5" y="2859" />
              <mxPoint x="504.5" y="2859" />
            </Array>
          </mxGeometry>
        </mxCell>
        <mxCell id="0cVivC7FAnk5mj-CIP8_-54" value="audio报警音" style="rounded=1;whiteSpace=wrap;html=1;fontSize=12;glass=0;strokeWidth=1;shadow=0;" parent="WIyWlLk6GJQsqaUBKTNV-1" vertex="1">
          <mxGeometry x="443.5" y="2909" width="120" height="40" as="geometry" />
        </mxCell>
        <mxCell id="0cVivC7FAnk5mj-CIP8_-55" value="" style="endArrow=classic;html=1;rounded=0;entryX=0.5;entryY=0;entryDx=0;entryDy=0;exitX=0.5;exitY=1;exitDx=0;exitDy=0;" parent="WIyWlLk6GJQsqaUBKTNV-1" source="0cVivC7FAnk5mj-CIP8_-43" target="0cVivC7FAnk5mj-CIP8_-52" edge="1">
          <mxGeometry width="50" height="50" relative="1" as="geometry">
            <mxPoint x="364.5" y="2815" as="sourcePoint" />
            <mxPoint x="473.5" y="2909" as="targetPoint" />
            <Array as="points">
              <mxPoint x="396.5" y="2859" />
              <mxPoint x="272.5" y="2859" />
            </Array>
          </mxGeometry>
        </mxCell>
        <mxCell id="0cVivC7FAnk5mj-CIP8_-60" value="与kanzi通信接口" style="rounded=1;whiteSpace=wrap;html=1;fontSize=12;glass=0;strokeWidth=1;shadow=0;" parent="WIyWlLk6GJQsqaUBKTNV-1" vertex="1">
          <mxGeometry x="319.5" y="3395" width="153" height="40" as="geometry" />
        </mxCell>
        <mxCell id="0cVivC7FAnk5mj-CIP8_-61" value="view模块FIFO处理view_proc中对限速报警进行处理" style="rounded=1;whiteSpace=wrap;html=1;fontSize=12;glass=0;strokeWidth=1;shadow=0;" parent="WIyWlLk6GJQsqaUBKTNV-1" vertex="1">
          <mxGeometry x="256.5" y="3303" width="280" height="40" as="geometry" />
        </mxCell>
        <mxCell id="0cVivC7FAnk5mj-CIP8_-62" value="QS_MSG_VI_DshbrdAlgo_VehSpd_INFO" style="rounded=1;whiteSpace=wrap;html=1;fontSize=12;glass=0;strokeWidth=1;shadow=0;" parent="WIyWlLk6GJQsqaUBKTNV-1" vertex="1">
          <mxGeometry x="283.25" y="3030" width="240.75" height="40" as="geometry" />
        </mxCell>
        <mxCell id="0cVivC7FAnk5mj-CIP8_-63" value="" style="endArrow=classic;html=1;rounded=0;" parent="WIyWlLk6GJQsqaUBKTNV-1" edge="1">
          <mxGeometry width="50" height="50" relative="1" as="geometry">
            <mxPoint x="397.75" y="3070" as="sourcePoint" />
            <mxPoint x="397.75" y="3120" as="targetPoint" />
          </mxGeometry>
        </mxCell>
        <mxCell id="0cVivC7FAnk5mj-CIP8_-64" value="" style="endArrow=classic;html=1;rounded=0;" parent="WIyWlLk6GJQsqaUBKTNV-1" edge="1">
          <mxGeometry width="50" height="50" relative="1" as="geometry">
            <mxPoint x="397.5" y="3252" as="sourcePoint" />
            <mxPoint x="397.5" y="3302" as="targetPoint" />
          </mxGeometry>
        </mxCell>
        <mxCell id="0cVivC7FAnk5mj-CIP8_-65" value="" style="endArrow=classic;html=1;rounded=0;" parent="WIyWlLk6GJQsqaUBKTNV-1" edge="1">
          <mxGeometry width="50" height="50" relative="1" as="geometry">
            <mxPoint x="396" y="3343" as="sourcePoint" />
            <mxPoint x="396" y="3393" as="targetPoint" />
          </mxGeometry>
        </mxCell>
        <mxCell id="0cVivC7FAnk5mj-CIP8_-66" value="kanzi显示" style="rounded=1;whiteSpace=wrap;html=1;fontSize=12;glass=0;strokeWidth=1;shadow=0;" parent="WIyWlLk6GJQsqaUBKTNV-1" vertex="1">
          <mxGeometry x="212" y="3530" width="120" height="40" as="geometry" />
        </mxCell>
        <mxCell id="0cVivC7FAnk5mj-CIP8_-67" value="" style="endArrow=classic;html=1;rounded=0;entryX=0.5;entryY=0;entryDx=0;entryDy=0;" parent="WIyWlLk6GJQsqaUBKTNV-1" edge="1">
          <mxGeometry width="50" height="50" relative="1" as="geometry">
            <mxPoint x="395.5" y="3436" as="sourcePoint" />
            <mxPoint x="504.5" y="3530" as="targetPoint" />
            <Array as="points">
              <mxPoint x="395.5" y="3480" />
              <mxPoint x="504.5" y="3480" />
            </Array>
          </mxGeometry>
        </mxCell>
        <mxCell id="0cVivC7FAnk5mj-CIP8_-68" value="audio报警音" style="rounded=1;whiteSpace=wrap;html=1;fontSize=12;glass=0;strokeWidth=1;shadow=0;" parent="WIyWlLk6GJQsqaUBKTNV-1" vertex="1">
          <mxGeometry x="443.5" y="3530" width="120" height="40" as="geometry" />
        </mxCell>
        <mxCell id="0cVivC7FAnk5mj-CIP8_-69" value="" style="endArrow=classic;html=1;rounded=0;entryX=0.5;entryY=0;entryDx=0;entryDy=0;exitX=0.5;exitY=1;exitDx=0;exitDy=0;" parent="WIyWlLk6GJQsqaUBKTNV-1" source="0cVivC7FAnk5mj-CIP8_-60" target="0cVivC7FAnk5mj-CIP8_-66" edge="1">
          <mxGeometry width="50" height="50" relative="1" as="geometry">
            <mxPoint x="364.5" y="3436" as="sourcePoint" />
            <mxPoint x="473.5" y="3530" as="targetPoint" />
            <Array as="points">
              <mxPoint x="396.5" y="3480" />
              <mxPoint x="272.5" y="3480" />
            </Array>
          </mxGeometry>
        </mxCell>
        <mxCell id="0cVivC7FAnk5mj-CIP8_-70" value="arbi模块处理arbi_proc中判断限速开关是否打开和车速是否超过限速" style="rhombus;whiteSpace=wrap;html=1;" parent="WIyWlLk6GJQsqaUBKTNV-1" vertex="1">
          <mxGeometry x="292.5" y="3120" width="211" height="130" as="geometry" />
        </mxCell>
        <mxCell id="45WWATNhBpUPY0e3H_ev-0" value="checkout msg type" style="rhombus;whiteSpace=wrap;html=1;" vertex="1" parent="WIyWlLk6GJQsqaUBKTNV-1">
          <mxGeometry x="307.5" y="-257" width="180" height="80" as="geometry" />
        </mxCell>
        <mxCell id="45WWATNhBpUPY0e3H_ev-2" value="checkout msg status" style="rhombus;whiteSpace=wrap;html=1;" vertex="1" parent="WIyWlLk6GJQsqaUBKTNV-1">
          <mxGeometry x="306" y="-130" width="180" height="80" as="geometry" />
        </mxCell>
        <mxCell id="45WWATNhBpUPY0e3H_ev-3" value="" style="endArrow=classic;html=1;rounded=0;" edge="1" parent="WIyWlLk6GJQsqaUBKTNV-1">
          <mxGeometry width="50" height="50" relative="1" as="geometry">
            <mxPoint x="396" y="-177" as="sourcePoint" />
            <mxPoint x="396" y="-127" as="targetPoint" />
          </mxGeometry>
        </mxCell>
        <mxCell id="45WWATNhBpUPY0e3H_ev-6" value="YES" style="edgeLabel;html=1;align=center;verticalAlign=middle;resizable=0;points=[];" vertex="1" connectable="0" parent="45WWATNhBpUPY0e3H_ev-3">
          <mxGeometry x="-0.3024" y="-1" relative="1" as="geometry">
            <mxPoint as="offset" />
          </mxGeometry>
        </mxCell>
        <mxCell id="45WWATNhBpUPY0e3H_ev-5" value="" style="endArrow=classic;html=1;rounded=0;" edge="1" parent="WIyWlLk6GJQsqaUBKTNV-1">
          <mxGeometry width="50" height="50" relative="1" as="geometry">
            <mxPoint x="397" y="-50" as="sourcePoint" />
            <mxPoint x="397" as="targetPoint" />
          </mxGeometry>
        </mxCell>
        <mxCell id="45WWATNhBpUPY0e3H_ev-7" value="YES" style="edgeLabel;html=1;align=center;verticalAlign=middle;resizable=0;points=[];" vertex="1" connectable="0" parent="45WWATNhBpUPY0e3H_ev-5">
          <mxGeometry x="-0.432" relative="1" as="geometry">
            <mxPoint as="offset" />
          </mxGeometry>
        </mxCell>
        <mxCell id="45WWATNhBpUPY0e3H_ev-8" value="msg长度是否有效" style="rhombus;whiteSpace=wrap;html=1;" vertex="1" parent="WIyWlLk6GJQsqaUBKTNV-1">
          <mxGeometry x="307.25" width="180" height="80" as="geometry" />
        </mxCell>
        <mxCell id="45WWATNhBpUPY0e3H_ev-9" value="申请msg内存" style="rhombus;whiteSpace=wrap;html=1;" vertex="1" parent="WIyWlLk6GJQsqaUBKTNV-1">
          <mxGeometry x="305.75" y="127" width="180" height="80" as="geometry" />
        </mxCell>
        <mxCell id="45WWATNhBpUPY0e3H_ev-10" value="" style="endArrow=classic;html=1;rounded=0;" edge="1" parent="WIyWlLk6GJQsqaUBKTNV-1">
          <mxGeometry width="50" height="50" relative="1" as="geometry">
            <mxPoint x="395.75" y="80" as="sourcePoint" />
            <mxPoint x="395.75" y="130" as="targetPoint" />
          </mxGeometry>
        </mxCell>
        <mxCell id="45WWATNhBpUPY0e3H_ev-11" value="YES" style="edgeLabel;html=1;align=center;verticalAlign=middle;resizable=0;points=[];" vertex="1" connectable="0" parent="45WWATNhBpUPY0e3H_ev-10">
          <mxGeometry x="-0.3024" y="-1" relative="1" as="geometry">
            <mxPoint as="offset" />
          </mxGeometry>
        </mxCell>
        <mxCell id="45WWATNhBpUPY0e3H_ev-12" value="" style="endArrow=classic;html=1;rounded=0;" edge="1" parent="WIyWlLk6GJQsqaUBKTNV-1">
          <mxGeometry width="50" height="50" relative="1" as="geometry">
            <mxPoint x="396.75" y="207" as="sourcePoint" />
            <mxPoint x="396.75" y="257" as="targetPoint" />
          </mxGeometry>
        </mxCell>
        <mxCell id="45WWATNhBpUPY0e3H_ev-13" value="YES" style="edgeLabel;html=1;align=center;verticalAlign=middle;resizable=0;points=[];" vertex="1" connectable="0" parent="45WWATNhBpUPY0e3H_ev-12">
          <mxGeometry x="-0.432" relative="1" as="geometry">
            <mxPoint as="offset" />
          </mxGeometry>
        </mxCell>
        <mxCell id="45WWATNhBpUPY0e3H_ev-14" value="获取数据" style="rhombus;whiteSpace=wrap;html=1;" vertex="1" parent="WIyWlLk6GJQsqaUBKTNV-1">
          <mxGeometry x="305.75" y="257" width="180" height="80" as="geometry" />
        </mxCell>
        <mxCell id="45WWATNhBpUPY0e3H_ev-16" value="" style="endArrow=classic;html=1;rounded=0;" edge="1" parent="WIyWlLk6GJQsqaUBKTNV-1">
          <mxGeometry width="50" height="50" relative="1" as="geometry">
            <mxPoint x="395.25" y="337" as="sourcePoint" />
            <mxPoint x="395.25" y="387" as="targetPoint" />
          </mxGeometry>
        </mxCell>
        <mxCell id="45WWATNhBpUPY0e3H_ev-17" value="YES" style="edgeLabel;html=1;align=center;verticalAlign=middle;resizable=0;points=[];" vertex="1" connectable="0" parent="45WWATNhBpUPY0e3H_ev-16">
          <mxGeometry x="-0.432" relative="1" as="geometry">
            <mxPoint as="offset" />
          </mxGeometry>
        </mxCell>
        <mxCell id="45WWATNhBpUPY0e3H_ev-18" value="解析JSON数据" style="rhombus;whiteSpace=wrap;html=1;" vertex="1" parent="WIyWlLk6GJQsqaUBKTNV-1">
          <mxGeometry x="305.75" y="390" width="180" height="80" as="geometry" />
        </mxCell>
        <mxCell id="45WWATNhBpUPY0e3H_ev-19" value="" style="endArrow=classic;html=1;rounded=0;" edge="1" parent="WIyWlLk6GJQsqaUBKTNV-1">
          <mxGeometry width="50" height="50" relative="1" as="geometry">
            <mxPoint x="396.75" y="470" as="sourcePoint" />
            <mxPoint x="396.75" y="520" as="targetPoint" />
          </mxGeometry>
        </mxCell>
        <mxCell id="45WWATNhBpUPY0e3H_ev-20" value="YES" style="edgeLabel;html=1;align=center;verticalAlign=middle;resizable=0;points=[];" vertex="1" connectable="0" parent="45WWATNhBpUPY0e3H_ev-19">
          <mxGeometry x="-0.432" relative="1" as="geometry">
            <mxPoint as="offset" />
          </mxGeometry>
        </mxCell>
        <mxCell id="45WWATNhBpUPY0e3H_ev-21" value="申请json内存" style="rhombus;whiteSpace=wrap;html=1;" vertex="1" parent="WIyWlLk6GJQsqaUBKTNV-1">
          <mxGeometry x="305.75" y="520" width="180" height="80" as="geometry" />
        </mxCell>
        <mxCell id="45WWATNhBpUPY0e3H_ev-22" value="" style="endArrow=classic;html=1;rounded=0;" edge="1" parent="WIyWlLk6GJQsqaUBKTNV-1">
          <mxGeometry width="50" height="50" relative="1" as="geometry">
            <mxPoint x="395.25" y="600" as="sourcePoint" />
            <mxPoint x="395.25" y="650" as="targetPoint" />
          </mxGeometry>
        </mxCell>
        <mxCell id="45WWATNhBpUPY0e3H_ev-23" value="YES" style="edgeLabel;html=1;align=center;verticalAlign=middle;resizable=0;points=[];" vertex="1" connectable="0" parent="45WWATNhBpUPY0e3H_ev-22">
          <mxGeometry x="-0.432" relative="1" as="geometry">
            <mxPoint as="offset" />
          </mxGeometry>
        </mxCell>
        <mxCell id="45WWATNhBpUPY0e3H_ev-25" value="gua_cb_get_fe_fecmd获取callback" style="rhombus;whiteSpace=wrap;html=1;" vertex="1" parent="WIyWlLk6GJQsqaUBKTNV-1">
          <mxGeometry x="305.75" y="740" width="180" height="80" as="geometry" />
        </mxCell>
        <mxCell id="45WWATNhBpUPY0e3H_ev-26" value="" style="endArrow=classic;html=1;rounded=0;" edge="1" parent="WIyWlLk6GJQsqaUBKTNV-1">
          <mxGeometry width="50" height="50" relative="1" as="geometry">
            <mxPoint x="395.25" y="820" as="sourcePoint" />
            <mxPoint x="395.25" y="870" as="targetPoint" />
          </mxGeometry>
        </mxCell>
        <mxCell id="45WWATNhBpUPY0e3H_ev-27" value="YES" style="edgeLabel;html=1;align=center;verticalAlign=middle;resizable=0;points=[];" vertex="1" connectable="0" parent="45WWATNhBpUPY0e3H_ev-26">
          <mxGeometry x="-0.5264" y="1" relative="1" as="geometry">
            <mxPoint as="offset" />
          </mxGeometry>
        </mxCell>
        <mxCell id="45WWATNhBpUPY0e3H_ev-28" value="结束" style="rounded=1;whiteSpace=wrap;html=1;fontSize=12;glass=0;strokeWidth=1;shadow=0;" vertex="1" parent="WIyWlLk6GJQsqaUBKTNV-1">
          <mxGeometry x="336.75" y="1050" width="120" height="40" as="geometry" />
        </mxCell>
        <mxCell id="45WWATNhBpUPY0e3H_ev-29" value="" style="endArrow=classic;html=1;rounded=0;" edge="1" parent="WIyWlLk6GJQsqaUBKTNV-1">
          <mxGeometry width="50" height="50" relative="1" as="geometry">
            <mxPoint x="395.25" y="1001" as="sourcePoint" />
            <mxPoint x="395.25" y="1051" as="targetPoint" />
          </mxGeometry>
        </mxCell>
        <mxCell id="45WWATNhBpUPY0e3H_ev-30" value="" style="endArrow=classic;html=1;rounded=0;entryX=1;entryY=0.5;entryDx=0;entryDy=0;exitX=1;exitY=0.5;exitDx=0;exitDy=0;" edge="1" parent="WIyWlLk6GJQsqaUBKTNV-1" source="45WWATNhBpUPY0e3H_ev-0" target="45WWATNhBpUPY0e3H_ev-28">
          <mxGeometry width="50" height="50" relative="1" as="geometry">
            <mxPoint x="640" y="-220" as="sourcePoint" />
            <mxPoint x="640" y="670" as="targetPoint" />
            <Array as="points">
              <mxPoint x="640" y="-220" />
              <mxPoint x="640" y="1070" />
            </Array>
          </mxGeometry>
        </mxCell>
        <mxCell id="45WWATNhBpUPY0e3H_ev-31" value="NO" style="edgeLabel;html=1;align=center;verticalAlign=middle;resizable=0;points=[];" vertex="1" connectable="0" parent="45WWATNhBpUPY0e3H_ev-30">
          <mxGeometry x="-0.8987" y="1" relative="1" as="geometry">
            <mxPoint as="offset" />
          </mxGeometry>
        </mxCell>
        <mxCell id="45WWATNhBpUPY0e3H_ev-32" value="" style="endArrow=classic;html=1;rounded=0;entryX=1;entryY=0.5;entryDx=0;entryDy=0;exitX=1;exitY=0.5;exitDx=0;exitDy=0;" edge="1" parent="WIyWlLk6GJQsqaUBKTNV-1" source="45WWATNhBpUPY0e3H_ev-2" target="45WWATNhBpUPY0e3H_ev-28">
          <mxGeometry width="50" height="50" relative="1" as="geometry">
            <mxPoint x="498" y="-207" as="sourcePoint" />
            <mxPoint x="467" y="1080" as="targetPoint" />
            <Array as="points">
              <mxPoint x="640" y="-90" />
              <mxPoint x="640" y="1070" />
            </Array>
          </mxGeometry>
        </mxCell>
        <mxCell id="45WWATNhBpUPY0e3H_ev-33" value="NO" style="edgeLabel;html=1;align=center;verticalAlign=middle;resizable=0;points=[];" vertex="1" connectable="0" parent="45WWATNhBpUPY0e3H_ev-32">
          <mxGeometry x="-0.8987" y="1" relative="1" as="geometry">
            <mxPoint as="offset" />
          </mxGeometry>
        </mxCell>
        <mxCell id="45WWATNhBpUPY0e3H_ev-35" value="" style="endArrow=none;html=1;rounded=0;exitX=1;exitY=0.5;exitDx=0;exitDy=0;" edge="1" parent="WIyWlLk6GJQsqaUBKTNV-1" source="45WWATNhBpUPY0e3H_ev-8">
          <mxGeometry width="50" height="50" relative="1" as="geometry">
            <mxPoint x="490" y="70" as="sourcePoint" />
            <mxPoint x="640" y="40" as="targetPoint" />
          </mxGeometry>
        </mxCell>
        <mxCell id="45WWATNhBpUPY0e3H_ev-36" value="NO" style="edgeLabel;html=1;align=center;verticalAlign=middle;resizable=0;points=[];" vertex="1" connectable="0" parent="45WWATNhBpUPY0e3H_ev-35">
          <mxGeometry x="-0.0894" y="-1" relative="1" as="geometry">
            <mxPoint as="offset" />
          </mxGeometry>
        </mxCell>
        <mxCell id="45WWATNhBpUPY0e3H_ev-37" value="" style="endArrow=none;html=1;rounded=0;exitX=1;exitY=0.5;exitDx=0;exitDy=0;" edge="1" parent="WIyWlLk6GJQsqaUBKTNV-1">
          <mxGeometry width="50" height="50" relative="1" as="geometry">
            <mxPoint x="486" y="166.5" as="sourcePoint" />
            <mxPoint x="639" y="166.5" as="targetPoint" />
          </mxGeometry>
        </mxCell>
        <mxCell id="45WWATNhBpUPY0e3H_ev-38" value="NO" style="edgeLabel;html=1;align=center;verticalAlign=middle;resizable=0;points=[];" vertex="1" connectable="0" parent="45WWATNhBpUPY0e3H_ev-37">
          <mxGeometry x="-0.0894" y="-1" relative="1" as="geometry">
            <mxPoint as="offset" />
          </mxGeometry>
        </mxCell>
        <mxCell id="45WWATNhBpUPY0e3H_ev-39" value="" style="endArrow=none;html=1;rounded=0;exitX=1;exitY=0.5;exitDx=0;exitDy=0;" edge="1" parent="WIyWlLk6GJQsqaUBKTNV-1">
          <mxGeometry width="50" height="50" relative="1" as="geometry">
            <mxPoint x="486" y="296.5" as="sourcePoint" />
            <mxPoint x="639" y="296.5" as="targetPoint" />
          </mxGeometry>
        </mxCell>
        <mxCell id="45WWATNhBpUPY0e3H_ev-40" value="NO" style="edgeLabel;html=1;align=center;verticalAlign=middle;resizable=0;points=[];" vertex="1" connectable="0" parent="45WWATNhBpUPY0e3H_ev-39">
          <mxGeometry x="-0.0894" y="-1" relative="1" as="geometry">
            <mxPoint as="offset" />
          </mxGeometry>
        </mxCell>
        <mxCell id="45WWATNhBpUPY0e3H_ev-41" value="" style="endArrow=none;html=1;rounded=0;exitX=1;exitY=0.5;exitDx=0;exitDy=0;" edge="1" parent="WIyWlLk6GJQsqaUBKTNV-1">
          <mxGeometry width="50" height="50" relative="1" as="geometry">
            <mxPoint x="486" y="430.5" as="sourcePoint" />
            <mxPoint x="639" y="430.5" as="targetPoint" />
          </mxGeometry>
        </mxCell>
        <mxCell id="45WWATNhBpUPY0e3H_ev-42" value="NO" style="edgeLabel;html=1;align=center;verticalAlign=middle;resizable=0;points=[];" vertex="1" connectable="0" parent="45WWATNhBpUPY0e3H_ev-41">
          <mxGeometry x="-0.0894" y="-1" relative="1" as="geometry">
            <mxPoint as="offset" />
          </mxGeometry>
        </mxCell>
        <mxCell id="45WWATNhBpUPY0e3H_ev-43" value="" style="endArrow=none;html=1;rounded=0;exitX=1;exitY=0.5;exitDx=0;exitDy=0;" edge="1" parent="WIyWlLk6GJQsqaUBKTNV-1">
          <mxGeometry width="50" height="50" relative="1" as="geometry">
            <mxPoint x="485.75" y="559.5" as="sourcePoint" />
            <mxPoint x="638.75" y="559.5" as="targetPoint" />
          </mxGeometry>
        </mxCell>
        <mxCell id="45WWATNhBpUPY0e3H_ev-44" value="NO" style="edgeLabel;html=1;align=center;verticalAlign=middle;resizable=0;points=[];" vertex="1" connectable="0" parent="45WWATNhBpUPY0e3H_ev-43">
          <mxGeometry x="-0.0894" y="-1" relative="1" as="geometry">
            <mxPoint as="offset" />
          </mxGeometry>
        </mxCell>
        <mxCell id="45WWATNhBpUPY0e3H_ev-45" value="" style="endArrow=none;html=1;rounded=0;exitX=1;exitY=0.5;exitDx=0;exitDy=0;" edge="1" parent="WIyWlLk6GJQsqaUBKTNV-1">
          <mxGeometry width="50" height="50" relative="1" as="geometry">
            <mxPoint x="486.5" y="779.5" as="sourcePoint" />
            <mxPoint x="639.5" y="779.5" as="targetPoint" />
          </mxGeometry>
        </mxCell>
        <mxCell id="45WWATNhBpUPY0e3H_ev-46" value="NO" style="edgeLabel;html=1;align=center;verticalAlign=middle;resizable=0;points=[];" vertex="1" connectable="0" parent="45WWATNhBpUPY0e3H_ev-45">
          <mxGeometry x="-0.0894" y="-1" relative="1" as="geometry">
            <mxPoint as="offset" />
          </mxGeometry>
        </mxCell>
      </root>
    </mxGraphModel>
  </diagram>
</mxfile>
